<svg width="268" height="268" viewBox="0 0 268 268" xmlns="http://www.w3.org/2000/svg" xmlns:xlink="http://www.w3.org/1999/xlink">
  <!-- Tick marks - faded -->
  <g stroke="rgba(255, 255, 255, 0.04)" stroke-width="0.5">
    <line x1="256" y1="134" x2="259" y2="134"/>
    <line x1="239.7" y1="196.5" x2="241.8" y2="197.7"/>
    <line x1="196.5" y1="239.7" x2="197.7" y2="241.8"/>
    <line x1="134" y1="256" x2="134" y2="259"/>
    <line x1="71.5" y1="239.7" x2="70.3" y2="241.8"/>
    <line x1="28.3" y1="196.5" x2="26.2" y2="197.7"/>
    <line x1="12" y1="134" x2="9" y2="134"/>
    <line x1="28.3" y1="71.5" x2="26.2" y2="70.3"/>
    <line x1="71.5" y1="28.3" x2="70.3" y2="26.2"/>
    <line x1="134" y1="12" x2="134" y2="9"/>
    <line x1="196.5" y1="28.3" x2="197.7" y2="26.2"/>
    <line x1="239.7" y1="71.5" x2="241.8" y2="70.3"/>
  </g>

  <!-- Major tick marks - faded -->
  <g stroke="rgba(255, 255, 255, 0.06)" stroke-width="1">
    <line x1="256" y1="134" x2="262" y2="134"/>
    <line x1="134" y1="256" x2="134" y2="262"/>
    <line x1="12" y1="134" x2="6" y2="134"/>
    <line x1="134" y1="12" x2="134" y2="6"/>
  </g>

  <!-- Text paths -->
  <defs>
    <path id="outerTextPath" d="M 134,134 m -130,0 a 130,130 0 1,1 260,0 a 130,130 0 1,1 -260,0"/>
    <path id="innerTextPath" d="M 134,134 m -82,0 a 82,82 0 1,1 164,0 a 82,82 0 1,1 -164,0"/>
  </defs>

  <!-- Outer text - very faded -->
  <text fill="rgba(255, 255, 255, 0.06)" font-size="6" font-family="monospace" letter-spacing="2">
    <textPath xlink:href="#outerTextPath">
      X:0847 Y:1293 // NODE_SPAWN v2.4.1 // THETA:142 // SYS:OK // 0xAE7F // X:0847 Y:1293 // NODE_SPAWN v2.4.1 // THETA:142 //
    </textPath>
  </text>

  <!-- Inner text - subtle -->
  <text fill="rgba(255, 255, 255, 0.04)" font-size="5" font-family="monospace" letter-spacing="3">
    <textPath xlink:href="#innerTextPath">
      SYS:OK // 0xF2B1 // GRID:ON // SYS:OK // 0xF2B1 // GRID:ON //
    </textPath>
  </text>
</svg>
